<svg xmlns="http://www.w3.org/2000/svg" xmlns:xlink="http://www.w3.org/1999/xlink" id="Layer_1" x="0" y="0" version="1.1" viewBox="0 0 1025 1025" xml:space="preserve" style="enable-background:new 0 0 1025 1025"><style type="text/css">.st0{fill:url(#SVGID_1_)}.st1{fill:url(#SVGID_2_)}.st2{fill:url(#SVGID_3_)}.st2,.st3,.st4{opacity:.49;enable-background:new}.st3{fill:url(#SVGID_4_)}.st4{fill:url(#SVGID_5_)}.st5{fill:url(#SVGID_6_)}.st6{fill:url(#SVGID_7_)}.st6,.st7,.st8{opacity:.49;enable-background:new}.st7{fill:url(#SVGID_8_)}.st8{fill:url(#SVGID_9_)}</style><g><linearGradient id="SVGID_1_" x1="512.5" x2="512.5" y1="-30.185" y2="708.97" gradientTransform="matrix(1 0 0 1 0 234)" gradientUnits="userSpaceOnUse"><stop offset="0" style="stop-color:#1d2643"/><stop offset="1" style="stop-color:#12142c"/></linearGradient><path d="M0,125C0,56.3,56.3,0,125,0h775c68.8,0,125,56.3,125,125v775c0,68.8-56.3,125-125,125H125 C56.3,1025,0,968.8,0,900V125z" class="st0"/></g><g><g><linearGradient id="SVGID_2_" x1="314.351" x2="314.351" y1="-62.522" y2="989.775" gradientTransform="matrix(1 0 0 1 0 234)" gradientUnits="userSpaceOnUse"><stop offset=".005" style="stop-color:#00bfe1"/><stop offset=".965" style="stop-color:#2738ab"/></linearGradient><path d="M554.8,371.6c-1.1-3-3.6-3.9-4.7-4.2c-1.1-0.3-4.2-0.8-6.8,1.8L529,383.5l-2.4,2.4L413,272.9 c-20.7-20.7-48.4-32.1-77.8-32.1s-57,11.4-77.7,32.1L95.8,434.8c-20.8,20.8-32.2,48.6-32.1,78c-0.1,29.6,11.3,57.4,32.1,78.2 l161.9,161c20.7,20.7,48.3,32.1,77.7,32.1c29.4,0,57-11.4,77.7-32.1c0,0,36.5-36.5,36.8-36.8c4.8-4.8,10.6-11.4,13.8-20 c2.5-6.9,3.3-14.4,2.3-21.6c-1-7.3-3.7-14.3-7.9-20.2c-1.6-2.3-3.4-4.5-5.5-6.4c-17.9-17.6-47-17.5-64.9,0.3l-39.8,39.7 c-2.4,2.4-5.4,4.1-8.7,4.8c-3.8,0.8-6.2,0.5-9.4-0.6c-3.2-1.1-5.9-3-8.2-5.3L160.9,525c-2.5-2.5-4.2-5.7-4.9-9 c-0.9-4.4,0-9,2.2-12.6l0.9-1c1.9-1.9,162.3-162,163.7-163.4c2.6-2.6,5.7-4.2,9.3-4.9c1.1-0.2,2.2-0.3,3.3-0.3 c4.8,0,9.2,1.8,12.5,5.3l113.2,112.5l-5.7,5.7l-11.1,11.3c-2.6,2.6-2.1,5.7-1.8,6.8c0.3,1.1,1.2,3.6,4.2,4.7L549,492.6 c4.2-0.1,8.2-1.7,11.2-4.7c3.1-3,4.7-7.1,4.8-11.3L554.8,371.6z" class="st1"/><linearGradient id="SVGID_3_" x1="112.843" x2="180.635" y1="306.554" y2="363.254" gradientTransform="matrix(1 0 0 1 -0.9371 233.39)" gradientUnits="userSpaceOnUse"><stop offset=".035" style="stop-color:#1b1464"/><stop offset="1" style="stop-color:#1b1464;stop-opacity:0"/></linearGradient><path d="M159.6,523.6c-4.6-5.2-5.5-14.2-1.4-20.3c0,0-53.2,58.1-27.6,122.3l33.7,33.5l49-81.5L159.6,523.6z" class="st2"/><linearGradient id="SVGID_4_" x1="1376.099" x2="1343.806" y1="496.732" y2="542.53" gradientTransform="matrix(-1 0 0 -1 1751.0015 1218.093)" gradientUnits="userSpaceOnUse"><stop offset=".035" style="stop-color:#1b1464"/><stop offset="1" style="stop-color:#1b1464;stop-opacity:0"/></linearGradient><path d="M325.4,689.1c60,55.2,126.1,24.5,126.1,24.5s8.7-8,12.2-18.6c-8.9-4.3-73.4-50.5-73.4-50.5l-38.1,38.1 C338.5,699.2,325.4,689.1,325.4,689.1z" class="st3"/><linearGradient id="SVGID_5_" x1="1467.127" x2="1491.363" y1="916.982" y2="857.029" gradientTransform="matrix(-1 0 0 -1 1751.0015 1218.093)" gradientUnits="userSpaceOnUse"><stop offset=".035" style="stop-color:#1b1464"/><stop offset="1" style="stop-color:#1b1464;stop-opacity:0"/></linearGradient><path d="M285.8,376.1c0,0,38.4-38.7,38.5-38.5c0,0,10.3-8.2,21.1-0.7c0,0-63.9-52.6-132.2-19.6l-19.9,20L285.8,376.1z" class="st4"/></g><g><linearGradient id="SVGID_6_" x1="713.101" x2="713.101" y1="-62.522" y2="989.775" gradientTransform="matrix(1 0 0 1 0 234)" gradientUnits="userSpaceOnUse"><stop offset=".005" style="stop-color:#00bfe1"/><stop offset=".965" style="stop-color:#2738ab"/></linearGradient><path d="M472.7,653.4c1.1,3,3.6,3.9,4.7,4.2c1.1,0.3,4.2,0.8,6.8-1.8l14.3-14.3l2.4-2.4L614.5,752 c20.7,20.7,48.4,32.1,77.8,32.1c29.4,0,57-11.4,77.7-32.1l161.7-161.9c20.8-20.8,32.2-48.6,32.1-78c0.1-29.6-11.3-57.4-32.1-78.2 l-161.9-161c-20.7-20.7-48.3-32.1-77.7-32.1c-29.4,0-57,11.4-77.7,32.1c0,0-36.5,36.5-36.8,36.8c-4.8,4.8-10.6,11.4-13.8,20 c-2.5,6.9-3.3,14.4-2.3,21.6c1,7.3,3.7,14.3,7.9,20.2c1.6,2.3,3.4,4.5,5.5,6.4c17.9,17.6,47,17.5,64.9-0.3l39.8-39.7 c2.4-2.4,5.4-4.1,8.7-4.8c3.8-0.8,6.2-0.5,9.4,0.6c3.2,1.1,5.9,3,8.2,5.3l160.7,160.7c2.5,2.5,4.2,5.7,4.9,9c0.9,4.4,0,9-2.2,12.6 l-0.9,1c-1.9,1.9-162.3,162-163.7,163.4c-2.6,2.6-5.7,4.2-9.3,4.9c-1.1,0.2-2.2,0.3-3.3,0.3c-4.8,0-9.2-1.8-12.5-5.3L566.3,573.6 l5.7-5.7l11.1-11.3c2.6-2.6,2.1-5.7,1.8-6.8c-0.3-1.1-1.2-3.6-4.2-4.7l-102.2-12.5c-4.2,0.1-8.2,1.7-11.2,4.7 c-3.1,3-4.7,7.1-4.8,11.3L472.7,653.4z" class="st5"/><linearGradient id="SVGID_7_" x1="1033.55" x2="1101.342" y1="307.62" y2="364.32" gradientTransform="matrix(-1 0 0 -1 1949.1301 792.66)" gradientUnits="userSpaceOnUse"><stop offset=".035" style="stop-color:#1b1464"/><stop offset="1" style="stop-color:#1b1464;stop-opacity:0"/></linearGradient><path d="M867.9,501.4c4.6,5.2,5.5,14.2,1.4,20.3c0,0,53.2-58.1,27.6-122.3l-33.7-33.5l-49,81.5L867.9,501.4z" class="st6"/><linearGradient id="SVGID_8_" x1="455.398" x2="423.105" y1="495.689" y2="541.487" gradientTransform="matrix(1 0 0 1 197.1916 -192.0429)" gradientUnits="userSpaceOnUse"><stop offset=".035" style="stop-color:#1b1464"/><stop offset="1" style="stop-color:#1b1464;stop-opacity:0"/></linearGradient><path d="M702.1,335.9c-60-55.2-126.1-24.5-126.1-24.5s-8.7,8-12.2,18.6c8.9,4.3,73.4,50.5,73.4,50.5l38.1-38.1 C689,325.8,702.1,335.9,702.1,335.9z" class="st7"/><linearGradient id="SVGID_9_" x1="546.348" x2="570.584" y1="915.903" y2="855.95" gradientTransform="matrix(1 0 0 1 197.1916 -192.0429)" gradientUnits="userSpaceOnUse"><stop offset=".035" style="stop-color:#1b1464"/><stop offset="1" style="stop-color:#1b1464;stop-opacity:0"/></linearGradient><path d="M741.6,648.9c0,0-38.4,38.7-38.5,38.5c0,0-10.3,8.2-21.1,0.7c0,0,63.9,52.6,132.2,19.6l19.9-20L741.6,648.9z" class="st8"/></g></g></svg>